:SAMPLES-PER-SECOND 30
:FULLY-SPECIFIED
:DEGREES
874
root  22.1311 38.5229 -25.7908 -170.783 -82.1451 165.851
RightUpLeg  21.0166 -11.8794 -8.71973
RightLeg  15.0263 3.86052 3.25884
RightFoot  -19.8487 0.116464 3.31965
RightToes  0.000482159 0.542163 -0.142577
Spine  14.211 2.34877 5.61411
Spine1  7.24905 5.34165 -7.78134
HEad  -4.25504 8.79094 -2.02879
LeftShoulder1  8.22808 -12.4666 -44.8908
LeftArm  -2.90041 27.6059 -25.7568
LeftForeArm  27.5395 -20.6232 -3.6774
LeftHand  -0.25398 0.0180481 5.50724
RightShoulder  5.33354 9.35075 35.5216
RightArm  -3.37053 -17.376 30.2634
RightForeArm  -5.40347 12.3705 7.79669
RightHand  -5.35036 14.3571 -31.1485
LeftUpLeg  -20.0072 9.86889 -6.10574
LeftLeg  9.70547 17.7063 -0.984744
LeftFoot  2.20422 -0.926146 7.65181
LeftToes  1.06246e-005 4.65854e-005 -8.18502e-006
875
root  20.3171 38.2674 -25.9744 -165.602 -81.3523 160.068
RightUpLeg  22.6311 -13.9205 -12.4019
RightLeg  19.2966 9.10742 3.99174
RightFoot  -18.9217 0.322501 6.91073
RightToes  0.000482159 0.542163 -0.142577
Spine  13.526 2.45165 3.0566
Spine1  7.18181 4.84014 -6.7139
HEad  -3.74556 10.3054 -1.58642
LeftShoulder1  7.98175 -12.0042 -44.8413
LeftArm  -3.84719 27.4689 -24.8857
LeftForeArm  28.8058 -19.1398 -3.85325
LeftHand  -0.25398 0.0180481 5.50724
RightShoulder  5.1989 9.04776 35.4516
RightArm  -5.91094 -21.4726 31.6034
RightForeArm  -4.8015 12.2514 7.36043
RightHand  -5.17402 13.9987 -30.7083
LeftUpLeg  -21.3194 14.1377 -10.1924
LeftLeg  16.37 9.61715 3.12868
LeftFoot  3.8702 -1.53212 11.3272
LeftToes  1.06246e-005 4.65854e-005 -8.18502e-006
876
root  18.6053 38.1725 -26.1503 -159.22 -81.1768 153.161
RightUpLeg  21.58 -13.5909 -14.6552
RightLeg  26.677 9.89908 5.01229
RightFoot  -13.7089 0.122129 11.4458
RightToes  0.000482159 0.542163 -0.142577
Spine  13.1801 2.35221 0.492325
Spine1  7.05194 4.14848 -5.65955
HEad  -3.16687 11.4839 -1.39906
LeftShoulder1  7.92038 -11.8123 -45.0611
LeftArm  -5.41984 26.4096 -23.9239
LeftForeArm  29.4713 -16.8509 -4.23125
LeftHand  -0.25398 0.0180481 5.50724
RightShoulder  5.09166 8.82837 35.3208
RightArm  -9.31097 -25.0523 33.5942
RightForeArm  -4.22003 11.5724 6.88678
RightHand  -5.01183 13.6073 -30.3804
LeftUpLeg  -20.9011 11.5546 -10.6072
LeftLeg  21.9977 10.8282 5.17599
LeftFoot  1.99492 -1.34245 11.2844
LeftToes  1.06246e-005 4.65854e-005 -8.18502e-006
877
root  17.0425 38.3073 -26.3185 -154.09 -80.6792 147.985
RightUpLeg  16.3334 -11.2996 -14.977
RightLeg  37.2815 6.16208 4.68491
RightFoot  -2.31016 -1.04427 13.3478
RightToes  0.000482159 0.542163 -0.142577
Spine  12.8053 2.31698 -1.60588
Spine1  6.96942 3.75321 -5.11785
HEad  -2.1571 12.5379 -1.39946
LeftShoulder1  7.86055 -11.7262 -44.969
LeftArm  -7.47872 24.6861 -23.633
LeftForeArm  29.7426 -14.5714 -4.53271
LeftHand  -0.25398 0.0180481 5.50724
RightShoulder  5.0125 8.7474 34.9547
RightArm  -12.6921 -27.5627 36.2283
RightForeArm  -3.93128 10.174 6.44156
RightHand  -4.93483 13.3706 -30.296
LeftUpLeg  -19.2251 11.144 -11.0414
LeftLeg  24.4475 11.8855 6.16321
LeftFoot  -1.68303 -0.807555 9.66357
LeftToes  1.06246e-005 4.65854e-005 -8.18502e-006
878
root  15.6433 38.5245 -26.4929 -151.215 -79.2318 145.319
RightUpLeg  8.23194 -8.24716 -14.6033
RightLeg  48.698 2.49761 2.73021
RightFoot  9.69366 -2.04961 11.4406
RightToes  0.000482159 0.542163 -0.142577
Spine  12.617 2.5828 -3.75031
Spine1  6.92882 3.68242 -4.97581
HEad  -1.09306 13.8819 -1.65181
LeftShoulder1  7.68838 -11.5276 -44.5465
LeftArm  -8.76859 22.7656 -23.9964
LeftForeArm  29.4397 -13.8158 -4.53534
LeftHand  -0.25398 0.0180481 5.50724
RightShoulder  5.01652 8.85707 34.6289
RightArm  -14.69 -28.7262 38.7053
RightForeArm  -3.89325 8.90874 6.12634
RightHand  -4.94016 13.3462 -30.3636
LeftUpLeg  -16.9112 12.3495 -11.8305
LeftLeg  24.3471 11.9656 6.18768
LeftFoot  -4.68328 -0.472798 8.6195
LeftToes  1.06246e-005 4.65854e-005 -8.18502e-006
879
root  14.3078 38.7516 -26.6562 -151.646 -77.7897 145.628
RightUpLeg  0.269504 -5.67288 -13.8977
RightLeg  58.0261 0.758366 0.885616
RightFoot  14.1827 -1.73731 8.00936
RightToes  0.000482159 0.542163 -0.142577
Spine  13.0185 2.78279 -5.24085
Spine1  6.83892 3.50765 -4.75134
HEad  -0.688379 15.5767 -2.37518
LeftShoulder1  7.53371 -11.3005 -44.3086
LeftArm  -8.58898 20.8267 -24.2826
LeftForeArm  28.8109 -15.1622 -4.33669
LeftHand  -0.25398 0.0180481 5.50724
RightShoulder  5.13055 9.10992 34.7171
RightArm  -15.2004 -28.7342 40.2586
RightForeArm  -3.54774 8.85214 6.06615
RightHand  -4.99918 13.5165 -30.4446
LeftUpLeg  -14.0741 13.477 -12.0016
LeftLeg  23.5877 11.7815 5.92973
LeftFoot  -6.59296 -0.278086 7.65942
LeftToes  1.06246e-005 4.65854e-005 -8.18502e-006
880
root  12.946 39.1206 -26.782 -154.915 -77.4575 148.418
RightUpLeg  -6.01158 -4.91196 -12.5104
RightLeg  62.8078 -0.147868 -0.849767
RightFoot  11.6751 -1.0554 5.58732
RightToes  0.000482159 0.542163 -0.142577
Spine  13.8642 2.46544 -5.11698
Spine1  6.79989 3.04785 -4.33095
HEad  -1.0364 17.2721 -3.59955
LeftShoulder1  7.52375 -11.253 -44.3955
LeftArm  -7.44426 18.8486 -24.2631
LeftForeArm  28.2285 -17.9144 -3.92822
LeftHand  -0.25398 0.0180481 5.50724
RightShoulder  5.28047 9.36037 35.0858
RightArm  -14.8691 -27.997 41.006
RightForeArm  -2.71738 10.2163 6.12297
RightHand  -5.07769 13.8181 -30.438
LeftUpLeg  -10.0107 14.2512 -10.8844
LeftLeg  21.5589 11.6422 5.28797
LeftFoot  -7.74856 -0.151642 6.31502
LeftToes  1.06246e-005 4.65854e-005 -8.18502e-006
881
root  11.5929 39.4548 -26.895 -159.255 -77.665 152.38
RightUpLeg  -11.2259 -5.23289 -10.7835
RightLeg  63.0254 -0.86529 -2.40967
RightFoot  7.26054 -0.860886 5.57042
RightToes  0.000482159 0.542163 -0.142577
Spine  14.6147 2.01231 -4.25982
Spine1  6.94194 2.54052 -3.97255
HEad  -1.56508 18.701 -5.01504
LeftShoulder1  7.58995 -11.3657 -44.4504
LeftArm  -6.63442 16.9473 -24.3519
LeftForeArm  28.1975 -21.2658 -3.53965
LeftHand  -0.25398 0.0180481 5.50724
RightShoulder  5.36831 9.50335 35.306
RightArm  -13.8069 -26.8231 41.44
RightForeArm  -2.06655 12.3943 6.07859
RightHand  -5.18779 14.2233 -30.4542
LeftUpLeg  -5.85963 14.2162 -9.02071
LeftLeg  19.4613 12.2784 4.14915
LeftFoot  -9.07106 -0.0506783 5.3427
LeftToes  1.06246e-005 4.65854e-005 -8.18502e-006
